<svg id="图层_1" data-name="图层 1" xmlns="http://www.w3.org/2000/svg" viewBox="0 0 144.29 11"><defs><style>.cls-1{fill:#fff;fill-rule:evenodd;}</style></defs><path class="cls-1" d="M115.78,327.59h5c1.59,0,2.77.85,4.44.85H257.37l2.71-.85a33,33,0,0,0-4.31,5.76c-.79-.11-1.29,1.39-2.87,1s-2.66-1.46-4.25-2.49a5.28,5.28,0,0,0-4.75.38c-1.58.76-3.17,1.91-4.16,1.53-2.18-.37-3.76-2.3-5.34-2.48s-3.17,1.6-4.76,1.71c-1.58-.11-3.16-1.89-4.75-1.52s-3.17,2.67-4.25,2.48c-2.09-.2-3.67-2.85-5.25-2.86s-3.17,2.66-4.76,3.81-3.16.78-4.75-.38-3.17-3.06-4.33-3.43c-2-.39-3.59.76-5.17,1.9s-3.17,2.29-4.76,1.91-3.16-2-4.75-2.09c-1.58.18-3.17,2.47-4.41,4-1.92,1.52-3.51,2.3-5.09,1.34s-3.17-3.62-4.75-3.82-3.17,2.1-4.76,2.73c-1.58-.24-3.16-2.17-4.5-3.3-1.83-.88-3.42-1.52-5-.95s-3.17,2.08-4.75,3.05a6.26,6.26,0,0,1-4.76.95c-1.58-.38-3.16-1.53-4.58-1.71-1.75-.21-3.34.58-4.92-.2s-2.28-3.05-4.75-2.67c-1.59.65-5.24,3.11-8.19,3-2.51-.14-6.38-3.28-8-5.08A13.74,13.74,0,0,0,115.78,327.59Z" transform="translate(-115.78 -327.59)"/></svg>