<svg id="图层_1" data-name="图层 1" xmlns="http://www.w3.org/2000/svg" viewBox="0 0 335 15.36"><defs><style>.cls-1{fill:#fff;fill-rule:evenodd;}</style></defs><path class="cls-1" d="M332.83,4.09c-1.42,1.47-2.4.8-4.89.11L323.88,3c-3.2-.94-6.6-.82-10.5-.92a57.93,57.93,0,0,1-11.57.17,21.5,21.5,0,0,0-7.32.53,25,25,0,0,1-12.41.13,36.25,36.25,0,0,0-6.82-1.19,34.29,34.29,0,0,0-10.74.63A11.58,11.58,0,0,1,256.85,2a9.71,9.71,0,0,0-8.47.32c-1.32-.12-3.66.1-5.35,0-4.53-.18-8.38,0-11.67,1.11a7.56,7.56,0,0,1-3.83.09c-2.12-.41-4.35-.72-6.56-1a44.68,44.68,0,0,0-11.64-.24,91.86,91.86,0,0,1-16.09.35,69.63,69.63,0,0,0-12,.18c-5.12.59-10.35,1.42-15.82.34-3.61.43-4.71.05-5.07,2.2-1.84,1-3.12,1.14-6.56.23-2.9-.76-5.76-1.56-8.72-2.29a28.68,28.68,0,0,0-10.27-.71c-3,.34-6.1.6-9.09,1a14.43,14.43,0,0,1-6.23-.26,11.94,11.94,0,0,0-5-.21c-3.74.8-7.8.47-11.72.3a12.37,12.37,0,0,1-3.71-1c-1.74.1-3.17-1.43-5-2C91.16-.11,90-.18,87.52.57a8.83,8.83,0,0,1-6.24,1,9.87,9.87,0,0,0-3.43.66c-2.13.68-4.1,1.9-6.15,2.18a7.79,7.79,0,0,1-5.2.09,15.12,15.12,0,0,0-6.62-.38c-5.52,1.48-10.53.82-16.61,1.75-4.74,1.38-9.61.73-14.18-.49-2.16,0-5.3-.87-8.25-.92-2.73,0-5.45-.22-8.15-.41-3.82-.27-7.89-.66-11.16.25.38,0,.37.66,0,.67v7.36a86.37,86.37,0,0,1,13.34.61c3,.34,6.06.8,9.15.93,5.92.26,11.89.3,17.83.49,2.95.09,5.89.66,8.82.5,6.43.41,13.42,1.24,18.67-.82a19.72,19.72,0,0,1,4.59-.67c4.83-.32,10-1,15.17-.28A19.27,19.27,0,0,0,92,13c8.92-.09,17.87-.71,26.73-.06a227.6,227.6,0,0,0,27.26.26c7.09-.24,13.14,0,19.74-.64,4.94-.07,9.92.21,15.68.16,3.29.74,6.78.1,10.26,1.2a51.63,51.63,0,0,0,7.68.18c5.57-.24,11.61-.25,16.81-.34,5.09.64,10.24,0,15.28-.25,6.55-.32,13-.91,19.52-1.31a26,26,0,0,1,5.39.1,37.37,37.37,0,0,0,12.26,0c8.82.13,17.49-.22,26.73-.29,6.14,0,12.4,1.95,17.67.32,1.29-.39,4.29.23,6,.59,4.61-.23,8.06-.5,12.66-.44,1.4,0,3.42.42,4.8.42V3A19.61,19.61,0,0,0,332.83,4.09Z" transform="translate(-1.53 0)"/></svg>