<svg id="图层_1" data-name="图层 1" xmlns="http://www.w3.org/2000/svg" viewBox="0 0 333.73 15.52"><defs><style>.cls-1{fill:#fff;fill-rule:evenodd;}</style></defs><path class="cls-1" d="M4.86,12.74a7.64,7.64,0,0,1,4.88-.11c1.4.37,2.72.78,4.07,1.18a26.16,26.16,0,0,0,10.5.92,83.58,83.58,0,0,1,11.82-.16A22.13,22.13,0,0,0,43.4,14a24.31,24.31,0,0,1,12.2-.13,52.49,52.49,0,0,0,6.83,1.19,29.27,29.27,0,0,0,10.74-.63c2.77-.62,5.77-.73,7.66.39a12.36,12.36,0,0,0,8.47.3,18.62,18.62,0,0,1,5.8-.63c4.27.18,7.94,0,11.23-1.1a7.34,7.34,0,0,1,3.83-.09c2.11.4,4.35.71,6.55,1a45.45,45.45,0,0,0,11.65.25,60.18,60.18,0,0,1,16.72.25c3.85-.36,7.54-.36,11.37-.79a78.24,78.24,0,0,1,16.67-.34c2.76.38,3.85,0,4.95-1.59,1.6-1.56,2.39-1.75,5.83-.84,2.9.77,5.76,1.57,8.71,2.3a29.44,29.44,0,0,0,10.28.71c3-.35,6.09-.61,9.09-1a15.91,15.91,0,0,1,6.57.27,7.91,7.91,0,0,0,4.82.2c3.56-.8,7.62-.46,11.54-.3a10.47,10.47,0,0,1,3.7,1c1.75.64,3.18,1.44,5,2a10,10,0,0,0,6.56.35c1.67-1.4,3.12-2.13,6.24-.87a25.13,25.13,0,0,1,3.42-1.39c2.14-.69,4.11-1.46,6.15-2.19a8.32,8.32,0,0,1,5.39-.09,14.13,14.13,0,0,0,6.44.38c5.51-.6,11.26-.82,16.61-1.74a41.1,41.1,0,0,1,14.18.48,34.62,34.62,0,0,0,8.25.93c2.72,0,5.45.21,8.15.4a30.94,30.94,0,0,0,10.57-.8l.12,0,.21-6.59c-4.37-.47-8.6-1-13.08-1.46-3-.33-6.06-.79-9.15-.93-5.92-.26-11.89-.29-17.83-.48-2.95-.1-5.89-.32-8.82-.5a72.64,72.64,0,0,0-18.67.82c-.82.61-3,.56-4.59.66-4.83.33-9.61,1-14.66.29a23.72,23.72,0,0,0-3.45.06c-8.91.08-17.86.7-26.73.05-9.14-.57-18.16.2-27.25-.25-6.57.24-13.15.53-19.74,1.16a147.84,147.84,0,0,0-14.87-.69A46.87,46.87,0,0,1,146,3.18a28.28,28.28,0,0,0-7.68-.46c-5.56.23-11.19.24-16.8.33-5.1.08-9.45,0-14.88.26-7,.31-13,1.1-19.92,1.31a25.33,25.33,0,0,1-5.39-.11c-4.16-.69-7.53-.34-12.17,0C60.75,5.13,51.47,6,42.82,6.11c-6.73,0-13,.51-18.3,2.7-.65-.16-3.46-.09-5.21-.13-4.61-.1-9.2,0-13.81-.5-1.39,0-1.95-.31-3.33-.31v6A5.75,5.75,0,0,0,4.86,12.74Z" transform="translate(-2.17 -1.76)"/></svg>