<svg id="图层_1" data-name="图层 1" xmlns="http://www.w3.org/2000/svg" viewBox="0 0 307 13"><defs><style>.cls-1{fill:#fff;fill-rule:evenodd;}</style></defs><path class="cls-1" d="M68.43,376.54h5c1.68,0,5.65,1,9,1H369.69l5.74-1s-5.19,3.5-9.12,6c-1.67.68-2.72,2.45-6.08,2s-5.63-2.05-9-2.42c-3.36-1.41-6.71-1-10.07-.07s-6.29,2.26-10.06,1.8c-3.35-.43-6.71-2.72-10.06-2.93s-6.71,1.57-10.06,1.58-6.71-1.79-10.06-1.35c-3.36,1-6.71,3.16-10.07,2.93-2.53-.24-6.7-3.37-10.06-3.38-3.09,0-6.71,3.14-10.06,4.51-3.35,1.83-6.71.91-10.06-.45s-6.71-3.63-10.06-4.06-6.71,1.42-10.06,2.25c-3.36,1.36-6.71,2.71-9.4,2.26-4-.44-7.37-2.72-10.61-2.48-3.47.22-6.83,2.93-10.18,4.73s-6.71,2.72-10.06,1.58-6.71-4.27-10.06-4.51-6.71,2.48-10.07,2.71-6.19-2.05-10.06-3.39a17.29,17.29,0,0,0-10.06-1.12c-3.35.69-6.71,2.46-10.06,3.61A22,22,0,0,1,140,387.46c-3.36-.45-6.71-1.8-10.06-2s-6.71.69-10.07-.22c-3-.9-7.14-4.28-11.39-3.67-3.36.44-9.76,4.18-16,4-5.33-.15-9.05-3.41-11-5C81.43,380.54,78.86,378.08,68.43,376.54Z" transform="translate(-68.43 -376.54)"/></svg>