<svg id="图层_1" data-name="图层 1" xmlns="http://www.w3.org/2000/svg" viewBox="0 0 140 11.83"><defs><style>.cls-1{fill:#fff;fill-rule:evenodd;}</style></defs><path class="cls-1" d="M140.46,3.06a1.84,1.84,0,0,1-2,.09,13.44,13.44,0,0,0-1.7-.91,6.2,6.2,0,0,0-4.38-.71,13.52,13.52,0,0,1-4.94.13,4.79,4.79,0,0,0-3,.41,5.91,5.91,0,0,1-5.19.1c-.9-.39-1.86-.28-2.85-.92a7.87,7.87,0,0,0-4.49.49c-1.16.48-2.12.83-3.2.14a4,4,0,0,0-3.54-.67,4.45,4.45,0,0,1-2.43.48,7.47,7.47,0,0,0-4.69.85c-.48.3-1,.28-.91.07a25.59,25.59,0,0,1-3.43-.8,10.08,10.08,0,0,0-4.86-.19,22.38,22.38,0,0,1-7,.27A14.57,14.57,0,0,0,77.12,2a21.68,21.68,0,0,1-6.61.49c-1.51-.52-2,.33-2.43,1-.46,1.2-1,1.34-2.43.65C64.44,3.58,63.24,3,62.12,2.4a7.22,7.22,0,0,0-4.41-.55c-1.26.27-2.54.89-3.79.75a3.42,3.42,0,0,1-2.61-.2,2.24,2.24,0,0,0-2.08-.16c-1.56.62-3.26.36-4.9.23a3.52,3.52,0,0,1-1.54-.75C42.06,1.22,41.46.61,40.7.15A3,3,0,0,0,38,.35a2.35,2.35,0,0,1-2.61.76c-.34-.11-1,.26-1.43.51C33,2.15,32.2,2.74,31.35,3.3a1.89,1.89,0,0,1-2.18.07,3.54,3.54,0,0,0-2.76-.29c-2.05.46-4.71.63-6.94,1.34-2,.64-4,1.27-5.47-.21a9.5,9.5,0,0,0-3.91-.87A14,14,0,0,1,6.69,3c-1.6-.2-3.3-.5-4.66.8.16.08.15-.1,0-.09V8.87c2.37.37,3.75.64,5.57,1a33.33,33.33,0,0,0,3.82.71c2.48.2,5,.23,7.46.38,1.23.07,2.46.24,3.68.38,2.69.32,5.4,1,7.8-.63.48-.32,1.25.31,1.92-.43,2-.33,4-.87,6.13-.3a5.81,5.81,0,0,0,1.43-.05c3.73-.06,7.47.13,11.17,0a57.09,57.09,0,0,0,11.39.2c2.75-.19,5.5-.42,8.25-.49,2.06-.06,4.15.16,6.21.12a11,11,0,0,1,4.63.7,6.63,6.63,0,0,0,3.21.36c2.33-.18,5.1-.19,7-.26,2.13-.06,4.28,0,6.39-.2,3.16-.24,5.43-.7,8.16-.92,1-.17,1.76-.21,2.25.73,1.74-.2,3.37-.47,5.08-.7,3.73-.51,7.35-.17,11.21-.23,2.57,0,5.18,1.51,7.39.25.53-.31,1.79.17,2.52.2,1.92.08,3.36-.13,5.29-.08a14.46,14.46,0,0,1,2,.32V2.19C142.19,2.41,140.92,2.69,140.46,3.06Z" transform="translate(-2.03 0.08)"/></svg>