<svg id="图层_1" data-name="图层 1" xmlns="http://www.w3.org/2000/svg" viewBox="0 0 140 12.22"><defs><style>.cls-1{fill:#fff;fill-rule:evenodd;}</style></defs><path class="cls-1" d="M3.25,8.23A1.86,1.86,0,0,1,5.3,8.14c.58.29,1.13.61,1.7.92,1.56.72,2.76,1.35,4.4.71a17.25,17.25,0,0,1,5.66-.13,9.44,9.44,0,0,0,2.25,0c1.68-1.29,3.39-.87,5.2-.56a13.84,13.84,0,0,0,2.86.92c1.56.29,3.49.81,4.5-.49,1.16-.48,2.5-.56,3.21.3a3.5,3.5,0,0,0,3.55.48,3.72,3.72,0,0,1,2.71-.73,7,7,0,0,0,4.43-.86,1.75,1.75,0,0,1,1.6-.07c.89.32,1.82,1.1,2.75.81A10.56,10.56,0,0,0,55,9.68c2.26,0,5-.56,7-.27a31.05,31.05,0,0,1,4.76.63A9.56,9.56,0,0,1,73.4,9c1.51.3,2,0,2.43-1.23.46-.82,1-1.35,2.44-.65,1.22.6,2.41,1.58,3.65,1.78a6.81,6.81,0,0,0,4.31.55A13.93,13.93,0,0,0,90,8.69a3.38,3.38,0,0,1,2.61.21c1.4.38,1.33.45,2.09.16,1.56-.62,3.26-.36,4.91-.24a7.72,7.72,0,0,1,1.82.76,5.88,5.88,0,0,0,1.82,1.58c1.23,1.35,1.72.82,2.75.32.7-1.14,1.31-1.7,2.61-1.29.34.1,1-.26,2.15-.51.18-.53,1.29-1.12,2.13-1.69.43-.45,1.19-.08,1.92-.07a3.61,3.61,0,0,0,2.77.3,67.35,67.35,0,0,0,7-1.35,7.68,7.68,0,0,1,5.94.37A8.34,8.34,0,0,0,134,8a32.67,32.67,0,0,1,3.42.31c1.6.21,3.06.59,4.43-.62l.29,0L142,2.53c-1.34.16-3.47-.76-5.48-1.13a19.86,19.86,0,0,0-3.83-.72c-2.48-.2-5-.23-7.47-.38-1.24-.07-2.47-.24-3.7-.38a21.78,21.78,0,0,0-7.82.63,4.94,4.94,0,0,1-1.92.52c-2,.25-4,.78-6,.83a1.59,1.59,0,0,0-1.62-.57c-3.74.07-7.49.55-11.2,0a54.83,54.83,0,0,0-11.42-.2c-2.76.18-5.51.41-8.27.49C72,1.73,69.1,1.51,67,1.54a11,11,0,0,1-4.65-.7A5.63,5.63,0,0,1,59.17.48c-2.34.19-4.7.19-7.05.26-2.13.06-4.29,0-6.4.2-2.74.24-5.45.7-7.76,1a8.06,8.06,0,0,1-2.68-.08,11.51,11.51,0,0,0-5.09,0c-3.74.5-7.41,1.82-11.28,1.27a13,13,0,0,0-7.42,2.35A4.3,4.3,0,0,0,9.3,5.09C7.37,5,5.45,4.75,3.52,4.7c-.59,0-.82-.23-1.4-.23V9.11C2.69,8.88,2.79,8.6,3.25,8.23Z" transform="translate(-2.12 0.2)"/></svg>